<?xml version="1.0" standalone="no"?>
<!DOCTYPE svg PUBLIC "-//W3C//DTD SVG 20010904//EN"
 "http://www.w3.org/TR/2001/REC-SVG-20010904/DTD/svg10.dtd">
<svg version="1.0" xmlns="http://www.w3.org/2000/svg"
 width="1955.000000pt" height="1838.000000pt" viewBox="0 0 1955.000000 1838.000000"
 preserveAspectRatio="xMidYMid meet">

<g transform="translate(0.000000,1838.000000) scale(0.100000,-0.100000)"
fill="#000000" stroke="none">
<path d="M0 9190 l0 -9190 9775 0 9775 0 0 9190 0 9190 -9775 0 -9775 0 0
-9190z m10767 8044 c71 -41 103 -146 69 -227 -15 -38 -76 -94 -111 -103 l-25
-6 0 -724 0 -724 460 0 460 0 0 395 0 395 25 0 25 0 0 -420 0 -420 -305 0
-305 0 0 -780 0 -780 440 0 440 0 0 533 0 532 -49 22 c-71 33 -106 88 -106
168 0 52 5 68 29 103 73 106 223 107 293 1 23 -35 28 -53 28 -104 0 -82 -35
-138 -106 -168 l-49 -21 0 -533 0 -533 675 0 c623 0 675 1 675 17 0 33 51 103
90 123 122 62 262 -23 262 -160 0 -98 -67 -171 -163 -178 -92 -7 -168 46 -186
131 l-5 27 -269 0 -269 0 0 -255 0 -255 945 0 945 0 0 243 0 242 -46 19 c-123
50 -149 217 -48 305 146 129 357 -35 275 -215 -19 -42 -68 -86 -108 -99 l-23
-6 0 -245 0 -244 500 0 c493 0 500 0 500 -20 0 -20 -7 -20 -500 -20 l-500 0 0
-257 1 -258 49 -23 c60 -28 92 -76 98 -147 9 -108 -71 -195 -180 -195 -121 0
-208 129 -164 245 20 51 74 103 117 112 l29 6 0 258 0 259 -970 0 -970 0 0
275 0 275 -380 0 -380 0 0 -920 0 -920 735 0 735 0 0 -25 0 -25 -1195 0 -1195
0 -2 -547 -3 -548 -22 -3 -23 -3 0 2295 0 2296 -180 0 -180 0 0 749 0 749 -31
7 c-44 10 -106 75 -119 126 -34 126 71 251 195 231 17 -2 49 -15 72 -28z
m1363 -119 c0 -24 2 -25 75 -25 73 0 75 -1 75 -25 0 -25 -1 -25 -80 -25 -79 0
-80 0 -80 -25 0 -25 1 -25 80 -25 78 0 80 -1 80 -25 0 -23 -3 -24 -77 -27
l-78 -3 -3 -32 -3 -33 80 0 c80 0 81 0 81 -25 0 -25 -1 -25 -80 -25 -79 0 -80
0 -80 -25 0 -25 1 -25 80 -25 78 0 80 -1 80 -25 0 -23 -3 -24 -77 -27 l-78 -3
0 -30 0 -30 78 -3 c74 -3 77 -4 77 -27 0 -24 -2 -25 -80 -25 -79 0 -80 0 -80
-25 0 -25 1 -25 80 -25 79 0 80 0 80 -25 0 -25 -1 -25 -81 -25 l-80 0 3 -32 3
-33 78 -3 c74 -3 77 -4 77 -27 0 -24 -2 -25 -80 -25 l-81 0 7 -35 6 -35 -486
0 -486 0 0 40 0 39 -77 3 c-72 3 -78 5 -81 26 -3 21 -1 22 77 22 l81 0 0 35 0
35 -81 0 c-78 0 -80 1 -77 23 3 20 9 22 81 25 74 3 77 4 77 27 0 24 -2 25 -80
25 -79 0 -80 0 -80 25 0 25 1 25 80 25 l80 0 0 30 0 29 -77 3 c-72 3 -78 5
-81 26 -3 21 -1 22 77 22 l81 0 0 30 0 30 -81 0 c-78 0 -80 1 -77 23 3 20 9
22 81 25 l77 3 0 29 0 29 -77 3 c-72 3 -78 5 -81 26 -3 21 -1 22 77 22 l81 0
0 30 0 30 -81 0 c-78 0 -80 1 -77 23 3 20 9 22 81 25 69 3 77 5 77 22 0 20 10
20 485 20 l485 0 0 -25z m-7360 -87 c67 -46 75 -67 78 -201 l3 -122 77 75
c139 135 301 200 500 200 122 0 205 -18 307 -65 286 -132 453 -451 390 -747
-39 -184 -147 -341 -305 -443 -136 -88 -266 -121 -439 -112 -180 9 -324 73
-458 203 l-73 71 0 -186 0 -186 35 -19 c51 -28 112 -98 143 -164 23 -49 27
-70 27 -152 0 -82 -4 -103 -27 -152 -35 -76 -95 -138 -170 -179 -55 -29 -74
-34 -153 -37 -75 -3 -100 0 -148 18 -92 35 -155 92 -202 184 -37 72 -40 84
-40 159 0 134 60 249 164 316 l50 33 1 711 c0 792 -4 745 70 794 46 32 124 32
170 1z m4519 -158 c162 -39 304 -122 421 -247 110 -116 198 -268 186 -319 -9
-36 -50 -74 -80 -74 -49 0 -73 21 -111 94 -76 146 -173 245 -307 312 -107 54
-200 74 -342 74 -151 0 -236 -18 -345 -72 -118 -57 -249 -187 -305 -301 -21
-42 -47 -84 -59 -92 -32 -22 -72 -18 -106 11 -40 33 -41 75 -5 147 128 252
368 434 629 476 39 6 81 13 95 15 53 9 250 -5 329 -24z m-94 -362 c86 -18 190
-74 262 -141 81 -76 143 -168 143 -212 0 -59 -66 -101 -125 -79 -8 4 -40 39
-70 79 -62 83 -101 115 -183 153 -52 24 -68 27 -172 27 -103 0 -121 -3 -172
-27 -68 -32 -144 -100 -193 -173 -19 -29 -42 -55 -51 -59 -33 -13 -74 -5 -101
18 -44 38 -39 87 19 167 151 213 384 302 643 247z m-74 -383 c146 -52 186
-234 74 -341 -47 -46 -122 -71 -177 -60 -142 28 -216 187 -145 309 52 88 152
125 248 92z m-21 -2775 l0 -2130 345 0 345 0 0 729 0 729 -29 5 c-75 15 -140
118 -127 199 29 181 265 216 338 50 47 -105 -1 -211 -114 -252 l-28 -10 0
-745 0 -745 -365 0 -365 0 0 -160 0 -160 -25 0 -25 0 0 550 0 550 -1365 0
-1365 0 0 25 0 25 900 0 900 0 0 645 0 645 -514 0 -514 0 -7 -28 c-3 -16 -19
-44 -35 -64 -98 -119 -273 -74 -312 80 -14 56 5 118 51 163 92 92 225 70 281
-48 l25 -52 513 -1 512 0 0 245 0 245 -1727 2 -1728 3 0 390 0 390 23 3 22 3
0 -370 0 -371 2170 0 2170 0 0 795 0 795 25 0 25 0 0 -2130z m3787 1895 c49
-20 71 -52 86 -121 15 -70 4 -89 -49 -89 -39 0 -39 0 -46 48 -8 57 -22 77 -54
77 -46 0 -54 -30 -54 -207 0 -192 5 -213 55 -213 29 0 37 5 45 26 6 14 10 38
10 53 0 34 17 51 51 51 40 0 53 -22 46 -80 -10 -87 -48 -134 -120 -149 -46
-10 -108 6 -138 35 -43 41 -51 91 -47 295 3 211 12 237 83 270 49 23 83 24
132 4z m231 2 c6 -6 26 -91 45 -187 l34 -174 33 173 c19 95 40 180 48 187 16
16 50 18 72 4 13 -8 15 -54 18 -294 3 -276 2 -286 -18 -306 -38 -38 -80 -15
-90 51 l-7 44 -2 -37 c-1 -23 -9 -46 -21 -58 -41 -41 -72 -19 -86 62 l-12 63
-1 -55 c-1 -30 -5 -60 -9 -66 -12 -18 -41 -24 -67 -14 l-25 10 0 293 c0 215 3
296 12 305 16 16 63 15 76 -1z m541 -5 c47 -23 69 -57 81 -120 13 -69 2 -92
-45 -92 -39 0 -55 20 -55 69 0 35 -23 61 -54 61 -32 0 -46 -19 -46 -59 0 -42
18 -65 108 -141 76 -63 95 -97 94 -166 -1 -100 -54 -154 -152 -154 -96 0 -138
42 -154 151 -8 52 8 79 47 79 36 0 49 -15 54 -64 7 -55 20 -68 65 -64 31 3 33
6 36 43 3 44 0 48 -121 156 -27 24 -56 57 -64 73 -21 41 -20 123 2 169 32 69
130 97 204 59z m-6631 -254 c8 -8 12 -52 12 -130 l0 -118 45 0 45 0 0 118 c0
127 5 142 50 142 49 0 50 -5 50 -306 0 -155 -3 -289 -6 -298 -8 -22 -80 -22
-88 0 -3 9 -6 67 -6 130 l0 114 -45 0 -45 0 0 -119 c0 -132 -5 -145 -62 -139
l-33 3 -3 295 c-1 162 0 300 3 307 6 16 67 17 83 1z m574 -13 c8 -19 8 -31 0
-50 -10 -21 -18 -25 -57 -25 l-45 0 0 -248 c0 -180 -3 -251 -12 -260 -18 -18
-75 -15 -82 4 -3 9 -6 126 -6 260 l0 244 -45 0 c-39 0 -47 4 -57 25 -8 19 -8
31 0 50 12 25 12 25 152 25 140 0 140 0 152 -25z m147 11 c7 -8 27 -90 45
-183 22 -114 34 -160 38 -143 4 14 18 86 33 160 33 175 36 180 79 180 25 0 38
-6 46 -19 6 -12 10 -124 10 -293 0 -306 -1 -312 -60 -306 l-35 3 -5 85 -5 85
-9 -70 c-10 -89 -19 -105 -56 -105 -36 0 -42 10 -56 85 l-12 60 -1 -66 c-1
-70 -7 -79 -55 -79 -45 0 -46 8 -46 310 0 209 3 289 12 298 16 16 63 15 77 -2z
m399 2 c9 -9 12 -80 12 -260 l0 -248 69 0 c74 0 101 -14 101 -50 0 -48 -5 -50
-135 -50 -103 0 -124 3 -129 16 -3 9 -6 143 -6 298 0 301 1 306 50 306 14 0
31 -5 38 -12z m8711 -750 c196 -83 362 -157 369 -166 8 -11 12 -64 12 -181 0
-443 -103 -833 -289 -1098 -48 -68 -48 -68 -127 -90 -137 -38 -254 -84 -300
-119 -24 -19 -49 -34 -54 -34 -5 0 -29 15 -53 33 -44 34 -147 76 -297 121 -82
25 -86 28 -126 83 -130 181 -224 439 -269 733 -20 127 -32 519 -18 545 14 25
751 336 777 328 11 -3 180 -73 375 -155z m-7241 -118 c41 -25 68 -69 76 -126
8 -61 -5 -84 -49 -84 -40 0 -55 20 -55 72 0 39 -15 58 -46 58 -49 0 -54 -18
-54 -206 0 -102 4 -183 10 -195 12 -22 59 -26 78 -7 7 7 12 27 12 46 0 52 15
72 55 72 48 0 59 -24 46 -96 -19 -102 -67 -140 -166 -132 -44 4 -62 11 -85 33
-46 44 -52 79 -48 297 3 180 5 199 24 225 44 61 139 81 202 43z m362 2 c44
-22 70 -67 77 -134 6 -63 -8 -81 -59 -76 -31 3 -33 6 -40 51 -8 59 -22 77 -59
77 -32 0 -49 -23 -49 -66 0 -21 21 -48 99 -123 91 -88 100 -100 106 -142 9
-61 -8 -119 -45 -154 -29 -28 -37 -30 -105 -30 -64 0 -77 3 -100 25 -36 33
-55 79 -55 133 0 49 13 67 50 67 35 0 50 -17 50 -58 0 -52 15 -72 56 -72 27 0
37 5 45 24 20 42 3 73 -77 138 -92 76 -124 126 -124 194 0 128 117 203 230
146z m368 -2 c39 -24 71 -88 72 -142 0 -55 -8 -68 -44 -68 -41 0 -56 16 -56
59 0 64 -62 96 -94 49 -34 -48 -16 -82 85 -163 80 -65 109 -113 109 -182 0
-96 -58 -153 -155 -153 -90 0 -140 50 -152 150 -7 58 6 80 46 80 35 0 51 -17
51 -55 0 -43 25 -75 59 -75 79 0 66 89 -24 158 -94 71 -134 132 -135 202 0 53
38 122 80 142 47 24 117 23 158 -2z m-5167 -1080 c187 -36 339 -192 372 -384
l11 -64 102 -4 c90 -4 110 -8 176 -40 169 -80 269 -239 267 -427 0 -42 -8
-101 -17 -131 l-18 -55 -1249 0 -1249 0 -19 60 c-14 47 -18 81 -14 157 3 85 8
105 40 172 80 169 235 266 427 266 l76 0 12 71 c32 184 185 343 363 378 63 13
656 13 720 1z m-21 -1170 l0 -30 -330 0 -330 0 0 30 0 30 330 0 330 0 0 -30z
m0 -135 l0 -65 -330 0 -330 0 0 65 0 65 330 0 330 0 0 -65z m6318 15 c54 -24
81 -79 82 -163 0 -112 -45 -168 -140 -175 l-60 -4 0 -124 c0 -123 0 -125 -25
-136 -19 -8 -31 -8 -50 0 l-25 12 0 293 c0 215 3 296 12 305 20 20 156 15 206
-8z m222 10 c12 -7 16 -36 18 -130 l4 -120 44 0 44 0 0 118 c0 125 6 142 46
142 53 0 54 -9 54 -315 0 -306 -1 -315 -54 -315 -41 0 -46 17 -46 147 l0 123
-44 0 -44 0 -4 -125 c-3 -132 -8 -145 -53 -145 -50 0 -50 -2 -50 315 0 252 2
297 15 305 19 12 51 12 70 0z m508 -17 c48 -36 67 -80 66 -158 -1 -117 -49
-175 -146 -175 l-48 0 0 -113 c0 -86 -4 -118 -16 -135 -19 -28 -48 -28 -74 -2
-20 20 -21 30 -18 306 3 240 5 286 18 295 8 6 54 8 103 6 68 -2 93 -8 115 -24z
m-5453 -37 c29 -29 39 -88 33 -205 -4 -98 -21 -136 -63 -147 -34 -9 -80 12
-94 42 -17 38 -14 258 4 294 24 47 81 55 120 16z m163 12 c8 -8 12 -62 12
-178 0 -171 -4 -190 -41 -190 -25 0 -29 20 -29 146 0 90 -3 114 -14 114 -7 0
-19 6 -25 13 -8 11 -4 25 20 60 31 47 54 58 77 35z m147 6 c34 -13 45 -59 45
-184 0 -135 -12 -175 -57 -186 -36 -9 -75 6 -90 36 -8 16 -13 71 -13 158 0
128 1 134 25 157 24 24 57 31 90 19z m180 -184 l0 -185 -25 0 -25 0 -3 125
c-2 118 -4 126 -24 135 -32 15 -32 26 3 73 23 31 37 42 53 40 21 -3 21 -7 21
-188z m156 177 c9 -7 21 -22 27 -34 15 -28 16 -239 1 -281 -20 -58 -102 -68
-136 -16 -19 30 -30 173 -18 250 11 77 77 119 126 81z m191 2 c34 -18 48 -70
48 -181 0 -78 -4 -111 -18 -138 -22 -44 -62 -60 -100 -39 -46 25 -53 52 -50
192 3 127 3 129 31 153 31 26 57 30 89 13z m213 -13 c18 -18 25 -39 30 -91 10
-85 -1 -202 -20 -232 -30 -46 -105 -42 -130 7 -21 41 -21 259 0 300 24 47 81
55 120 16z m160 -166 l0 -185 -25 0 -25 0 -3 128 c-2 98 -6 127 -16 127 -7 0
-19 7 -26 15 -17 21 45 107 75 103 19 -3 20 -9 20 -188z m150 184 c34 -13 45
-58 45 -184 0 -121 -7 -152 -39 -177 -26 -20 -70 -15 -96 12 -24 23 -25 29
-25 165 0 136 1 142 25 165 24 24 57 31 90 19z m212 -18 c28 -24 28 -26 31
-153 3 -140 -4 -167 -50 -192 -38 -21 -78 -5 -100 39 -23 45 -25 223 -4 274
25 59 76 73 123 32z m198 0 c31 -31 38 -74 33 -195 -4 -108 -19 -146 -63 -157
-38 -9 -82 13 -94 48 -15 42 -14 253 1 281 27 52 84 62 123 23z m163 12 c13
-13 18 -321 6 -352 -3 -9 -16 -16 -29 -16 -31 0 -35 15 -35 145 0 104 -1 113
-20 118 -27 7 -25 34 6 79 27 39 51 47 72 26z m-3528 -223 l0 -145 80 0 c44 0
80 -3 80 -7 0 -3 -26 -34 -58 -67 -31 -34 -143 -152 -247 -264 l-190 -204 -54
59 c-30 32 -117 126 -195 208 -223 236 -246 262 -246 268 0 4 38 7 85 7 l85 0
0 145 0 145 330 0 330 0 0 -145z m8910 -364 c0 -76 -4 -131 -10 -133 -5 -1
-102 -2 -215 0 l-205 3 0 129 0 130 215 0 215 0 0 -129z m-6158 59 c23 -28 31
-89 27 -199 -3 -72 -8 -95 -25 -118 -40 -53 -116 -39 -135 27 -6 20 -9 87 -7
154 3 116 3 118 32 143 34 29 80 26 108 -7z m156 18 c13 -13 18 -321 6 -352
-3 -9 -16 -16 -29 -16 -31 0 -35 15 -35 147 0 64 -3 113 -7 110 -9 -10 -33 13
-33 32 0 20 57 91 74 91 6 0 17 -5 24 -12z m151 -3 c37 -19 41 -36 41 -188 0
-123 -1 -129 -25 -152 -29 -30 -74 -32 -106 -6 -23 18 -24 27 -27 151 -4 142
4 180 41 198 30 15 44 14 76 -3z m179 -178 l2 -188 -27 3 -28 3 -3 128 c-1 70
-6 125 -11 123 -5 -3 -16 3 -26 14 -17 19 -17 21 11 57 34 45 44 54 64 50 13
-2 15 -32 18 -190z m146 182 c36 -17 46 -57 46 -186 0 -127 -13 -168 -55 -179
-71 -18 -105 22 -112 134 -13 191 30 272 121 231z m181 -179 l0 -185 -25 0
-25 0 -3 128 c-1 71 -7 125 -11 122 -10 -5 -41 21 -41 34 0 4 14 26 31 50 23
30 37 41 53 39 21 -3 21 -7 21 -188z m-3103 -1473 c43 -26 71 -60 86 -106 9
-24 12 -170 12 -490 l0 -456 63 0 c54 0 69 -4 100 -28 67 -51 99 -146 77 -227
-7 -27 -60 -115 -131 -220 l-119 -175 0 -90 c0 -105 -19 -194 -56 -268 -33
-64 -144 -177 -201 -203 l-42 -19 -1 -57 0 -58 104 0 104 0 7 -62 c89 -837
315 -1579 632 -2080 191 -301 431 -543 661 -666 44 -23 84 -42 91 -42 6 0 11
16 11 35 0 53 37 154 79 215 45 66 138 139 218 172 l58 23 1163 3 1162 2 0
115 c0 108 -1 115 -20 115 -11 0 -90 18 -176 40 -247 63 -471 160 -654 283
-343 230 -609 585 -714 952 -22 79 -28 133 -46 427 -11 186 -20 343 -20 350 0
8 -24 18 -62 25 -148 28 -298 135 -391 278 -162 251 -203 669 -87 895 71 139
238 158 387 44 33 -25 33 -26 33 -110 0 -46 3 -84 8 -84 4 1 34 7 67 15 92 22
95 22 95 -27 0 -24 7 -90 15 -148 36 -251 97 -390 194 -439 59 -30 204 -53
416 -66 55 -4 116 -9 135 -11 80 -9 641 -12 710 -3 163 21 205 56 262 219 39
113 78 351 78 477 l0 74 43 19 c106 47 263 51 370 11 l57 -22 0 -106 c0 -179
50 -447 105 -560 14 -28 43 -67 64 -86 61 -55 111 -62 441 -62 404 0 706 18
903 56 130 24 189 91 242 274 25 87 55 290 55 372 0 24 5 43 10 43 6 0 50 40
98 89 98 99 171 142 257 149 103 8 174 -36 220 -139 87 -196 70 -525 -42 -777
-83 -187 -259 -336 -440 -373 l-62 -13 -5 -40 c-3 -23 -13 -174 -21 -336 -17
-321 -21 -346 -72 -495 -106 -305 -321 -598 -589 -802 -229 -174 -529 -308
-846 -377 l-28 -6 0 -120 0 -120 1103 0 c706 0 1118 -4 1146 -11 118 -27 260
-137 309 -239 49 -104 52 -136 52 -580 l0 -415 163 -39 c486 -116 936 -321
1275 -583 119 -91 343 -318 428 -433 84 -112 164 -243 218 -357 38 -78 41 -82
79 -88 46 -8 104 -56 123 -102 10 -22 14 -79 14 -180 l0 -149 61 -59 c150
-148 232 -316 254 -517 l7 -68 -911 0 -911 0 0 36 c0 26 -7 41 -24 55 -39 31
-299 336 -320 376 -30 56 -32 129 -6 190 26 60 52 87 115 118 l47 22 -88 77
c-144 125 -322 236 -471 295 l-53 21 0 -478 c0 -518 -2 -537 -56 -644 -34 -67
-125 -158 -192 -192 -118 -60 73 -56 -2924 -54 l-2743 3 -59 22 c-132 50 -233
152 -285 286 -14 37 -17 142 -21 865 l-5 822 -94 44 c-373 176 -689 401 -991
705 -251 251 -426 478 -611 788 -437 734 -719 1734 -765 2716 l-7 147 71 0 72
0 0 70 c0 66 -1 70 -27 84 -45 23 -130 115 -162 176 -45 85 -61 159 -61 286 0
62 -5 125 -11 141 -14 34 -69 431 -69 493 0 127 110 232 226 216 36 -5 44 -3
49 13 17 55 91 101 163 101 67 0 110 -18 146 -61 34 -40 49 -39 84 3 33 39 78
58 137 58 62 0 105 -20 143 -66 l32 -39 0 385 c0 220 4 400 10 419 34 120 171
180 272 118z m6515 -59 c-2 -18 -33 -219 -68 -445 l-64 -413 -271 0 -272 0
-42 55 c-65 84 -189 197 -257 233 -94 50 -203 56 -203 12 0 -10 23 -42 50 -69
l50 -50 -41 -11 c-73 -20 -114 -87 -74 -120 9 -8 70 -16 163 -21 126 -6 261
-25 250 -34 -2 -1 -59 -5 -128 -9 -69 -3 -199 -11 -290 -17 -359 -23 -380 -25
-408 -46 -24 -18 -66 -70 -74 -93 -2 -5 -34 1 -73 12 -126 37 -357 29 -479
-18 -10 -4 -22 8 -37 38 -49 98 -79 114 -234 123 -66 4 -136 9 -155 10 -19 2
-98 6 -175 10 -77 4 -151 9 -165 10 -14 2 -61 5 -105 6 l-80 2 95 7 c126 9
140 14 140 51 0 39 -36 74 -88 89 l-41 10 50 50 c65 65 65 93 1 98 -98 7 -228
-70 -355 -210 l-77 -84 -187 0 -187 1 -64 409 c-35 224 -61 410 -59 413 3 2
166 -16 363 -41 1369 -173 2302 -266 2699 -269 160 -1 173 0 219 22 35 17 52
33 63 58 22 54 3 96 -84 180 l-74 73 223 3 c123 1 297 3 387 5 l164 2 -6 -32z
m-3192 -1178 c77 -5 205 -11 285 -15 80 -4 221 -13 313 -19 162 -12 169 -13
195 -39 l27 -28 -1 -152 c-1 -114 -8 -188 -26 -294 -27 -151 -42 -188 -86
-204 -25 -10 -545 -13 -637 -5 -22 3 -98 7 -170 11 -132 6 -145 7 -320 25
-192 20 -197 23 -224 156 -21 100 -48 390 -38 400 3 4 30 12 59 19 59 13 59
14 44 108 l-7 48 223 -2 c123 -1 286 -5 363 -9z m3003 -76 l-3 -58 64 -15 63
-15 -6 -106 c-8 -119 -29 -290 -46 -366 -20 -93 -44 -102 -305 -124 -71 -6
-150 -12 -175 -15 -129 -12 -587 -22 -792 -17 -59 2 -72 6 -98 30 -25 23 -32
41 -49 132 -30 152 -41 260 -41 381 0 100 2 109 25 137 29 35 46 38 215 47 63
3 174 10 245 15 72 5 211 12 310 16 99 4 181 8 183 9 1 1 95 3 207 4 l205 2
-2 -57z"/>
<path d="M10611 17202 c-68 -37 -91 -129 -48 -193 44 -66 121 -83 184 -42 80
53 67 202 -22 239 -46 19 -73 18 -114 -4z"/>
<path d="M11893 15210 c-62 -37 -82 -124 -43 -187 64 -105 224 -71 237 51 14
119 -96 196 -194 136z"/>
<path d="M14641 14082 c-119 -60 -77 -252 55 -252 56 0 84 14 112 54 44 64 20
166 -47 201 -39 20 -78 19 -120 -3z"/>
<path d="M13454 13946 c-91 -41 -109 -166 -33 -230 82 -69 202 -19 215 90 12
99 -93 180 -182 140z"/>
<path d="M11060 12880 l0 -920 440 0 440 0 0 920 0 920 -440 0 -440 0 0 -920z"/>
<path d="M14645 12674 c-50 -25 -70 -61 -70 -126 0 -49 4 -61 29 -87 44 -46
88 -57 141 -36 55 21 85 65 85 126 0 103 -97 168 -185 123z"/>
<path d="M11250 16715 l0 -325 390 0 390 0 0 325 0 325 -390 0 -390 0 0 -325z
m128 43 l2 -218 138 0 c142 0 162 -5 162 -42 0 -33 -35 -40 -206 -37 l-164 3
0 251 c0 138 3 255 7 259 4 4 19 6 33 4 l25 -3 3 -217z m590 70 l3 -148 -201
0 -200 0 0 143 c0 79 3 147 7 151 4 3 93 5 197 4 l191 -3 3 -147z"/>
<path d="M5310 16547 l0 -292 143 -143 142 -142 55 55 55 55 -123 123 -122
122 0 258 0 257 -75 0 -75 0 0 -293z"/>
<path d="M4670 16010 c0 -104 -2 -120 -17 -128 -10 -5 -24 -7 -30 -5 -9 3 -13
-6 -13 -29 0 -29 3 -34 23 -34 21 1 22 -2 25 -113 3 -116 -3 -138 -35 -126
-10 3 -13 -20 -13 -95 l0 -99 -32 -17 c-130 -65 -173 -213 -96 -328 93 -142
312 -141 408 2 55 83 47 189 -21 266 -21 24 -52 49 -69 56 l-30 12 0 379 0
379 -50 0 -50 0 0 -120z m-85 -746 c61 -24 57 -189 -5 -209 -76 -24 -119 127
-55 191 25 25 34 28 60 18z"/>
<path d="M8170 12925 l0 -915 440 0 440 0 0 915 0 915 -440 0 -440 0 0 -915z"/>
<path d="M6844 13442 c-113 -72 -63 -252 70 -252 85 0 149 84 127 166 -23 87
-125 131 -197 86z"/>
<path d="M9736 12969 c-104 -82 -51 -249 79 -249 70 0 125 63 125 144 0 43 -4
53 -39 87 -35 35 -44 39 -88 39 -36 0 -58 -6 -77 -21z"/>
<path d="M16130 14165 l-335 -143 0 -199 c1 -353 73 -659 211 -893 71 -122 76
-126 194 -161 58 -17 143 -48 190 -70 l84 -40 56 30 c30 16 107 46 170 66 63
20 126 42 140 48 14 7 48 50 77 95 94 150 164 350 202 572 26 154 46 450 34
510 l-8 43 -340 144 c-187 78 -340 143 -340 142 0 -1 -151 -65 -335 -144z
m433 -40 c100 -26 169 -83 211 -175 16 -37 21 -71 24 -187 l4 -143 -76 0 -76
0 0 133 c0 157 -11 185 -87 219 -85 38 -169 14 -220 -62 -21 -30 -23 -45 -23
-161 l0 -129 -70 0 -70 0 0 143 c0 128 2 147 24 193 40 86 120 151 213 173 56
13 83 13 146 -4z"/>
<path d="M11360 11590 l0 -80 40 0 c46 0 60 18 60 79 0 50 -27 81 -70 81 l-30
0 0 -80z"/>
<path d="M12080 11590 l0 -80 34 0 c43 0 59 20 59 75 0 54 -24 85 -65 85 l-28
0 0 -80z"/>
<path d="M6684 11647 c-2 -7 -3 -60 -2 -118 3 -90 5 -104 21 -107 15 -3 17 8
17 117 0 102 -2 121 -15 121 -9 0 -18 -6 -21 -13z"/>
<path d="M7010 11540 c0 -113 1 -120 20 -120 19 0 20 7 20 120 0 113 -1 120
-20 120 -19 0 -20 -7 -20 -120z"/>
<path d="M7340 11540 c0 -110 2 -121 18 -118 15 3 17 17 17 118 0 101 -2 115
-17 118 -16 3 -18 -8 -18 -118z"/>
<path d="M7536 11644 c-3 -9 -6 -55 -6 -104 0 -97 5 -120 26 -120 11 0 14 24
14 120 0 96 -3 120 -14 120 -8 0 -17 -7 -20 -16z"/>
<path d="M7734 11647 c-2 -7 -3 -60 -2 -118 3 -90 5 -104 21 -107 15 -3 17 8
17 117 0 102 -2 121 -15 121 -9 0 -18 -6 -21 -13z"/>
<path d="M8060 11540 c0 -110 2 -121 18 -118 15 3 17 17 17 118 0 101 -2 115
-17 118 -16 3 -18 -8 -18 -118z"/>
<path d="M8260 11540 c0 -96 3 -120 14 -120 21 0 26 23 26 120 0 97 -5 120
-26 120 -11 0 -14 -24 -14 -120z"/>
<path d="M8454 11647 c-2 -7 -3 -60 -2 -118 3 -90 5 -104 21 -107 15 -3 17 8
17 117 0 102 -2 121 -15 121 -9 0 -18 -6 -21 -13z"/>
<path d="M7836 11134 c-12 -32 -7 -211 7 -223 8 -6 17 -8 20 -4 4 3 7 60 7
125 0 94 -3 118 -14 118 -8 0 -17 -7 -20 -16z"/>
<path d="M8164 11137 c-2 -7 -3 -62 -2 -123 2 -89 6 -109 18 -109 12 0 15 22
18 123 2 105 0 122 -13 122 -9 0 -18 -6 -21 -13z"/>
<path d="M8490 11031 c0 -77 4 -122 11 -127 22 -13 29 22 27 131 -3 95 -5 110
-20 113 -16 3 -18 -8 -18 -117z"/>
<path d="M8892 8275 c-64 -28 -110 -74 -144 -143 -29 -59 -33 -76 -33 -147 1
-94 22 -149 81 -214 58 -65 105 -85 194 -86 65 0 82 4 129 30 104 58 157 161
149 294 -10 167 -123 281 -278 281 -36 -1 -80 -7 -98 -15z"/>
<path d="M11227 8236 c-69 -25 -122 -75 -158 -151 -24 -50 -29 -73 -29 -136 0
-95 20 -155 73 -215 111 -126 293 -126 404 0 51 57 76 127 76 211 0 125 -65
234 -168 281 -57 27 -138 31 -198 10z"/>
</g>
</svg>
