<?xml version="1.0" standalone="no"?>
<!DOCTYPE svg PUBLIC "-//W3C//DTD SVG 20010904//EN"
 "http://www.w3.org/TR/2001/REC-SVG-20010904/DTD/svg10.dtd">
<svg version="1.0" xmlns="http://www.w3.org/2000/svg"
 width="253.000000pt" height="199.000000pt" viewBox="0 0 253.000000 199.000000"
 preserveAspectRatio="xMidYMid meet">

<g transform="translate(0.000000,199.000000) scale(0.100000,-0.100000)"
fill="#000000" stroke="none">
<path d="M1440 1447 c0 -235 3 -427 8 -427 4 0 60 12 125 27 96 22 117 30 117
44 0 10 -20 153 -44 316 -25 164 -48 319 -51 345 -7 45 -8 47 -49 53 -26 5
-53 18 -73 38 l-33 31 0 -427z"/>
<path d="M2023 790 c-47 -21 -77 -62 -95 -127 -11 -37 -16 -43 -39 -43 -25 0
-29 -5 -36 -42 -9 -42 -8 -43 19 -46 23 -3 27 -7 23 -25 -11 -45 -55 -290 -55
-304 0 -11 13 -13 57 -11 l57 3 31 165 31 165 41 3 c43 3 53 16 53 70 0 19 -5
22 -39 22 -35 0 -38 2 -34 24 8 39 40 66 78 66 32 0 34 3 43 43 5 28 5 44 -2
49 -20 14 -91 8 -133 -12z"/>
<path d="M391 518 c-29 -156 -55 -293 -58 -306 -5 -21 -2 -22 54 -22 l60 0 22
124 c13 70 32 140 45 162 37 67 106 70 106 5 0 -15 -11 -85 -25 -156 -14 -72
-25 -131 -25 -132 0 -2 26 -3 59 -3 l59 0 22 118 c12 64 25 149 27 189 5 67 4
73 -20 97 -36 36 -109 36 -161 1 -20 -13 -36 -21 -36 -16 0 5 9 53 20 106 11
53 20 101 20 106 0 5 -26 9 -58 9 l-58 0 -53 -282z"/>
<path d="M1753 790 c-42 -17 -56 -75 -25 -103 28 -25 67 -21 91 9 27 34 26 50
-4 79 -26 27 -30 28 -62 15z"/>
<path d="M133 601 c-52 -24 -78 -63 -78 -117 0 -47 16 -70 83 -116 35 -24 43
-35 40 -56 -4 -38 -43 -49 -101 -30 l-46 15 -15 -43 -14 -43 30 -10 c43 -15
142 -14 181 3 49 21 79 59 84 109 7 57 -5 78 -72 127 -56 41 -62 53 -45 80 9
14 71 19 109 9 8 -3 18 11 26 38 12 39 11 42 -9 47 -44 12 -132 5 -173 -13z"/>
<path d="M932 610 c-87 -35 -144 -126 -149 -240 -4 -63 -1 -80 16 -108 61 -96
214 -99 303 -5 96 101 95 292 -2 345 -37 19 -128 24 -168 8z m109 -97 c29 -34
6 -167 -38 -215 -22 -25 -79 -24 -93 1 -26 49 -1 169 44 214 22 22 69 22 87 0z"/>
<path d="M1256 598 c-2 -13 -26 -140 -52 -282 -26 -143 -49 -268 -52 -278 -4
-16 3 -18 56 -18 l59 0 16 86 c9 48 18 88 20 90 2 2 18 0 35 -6 41 -11 118 8
157 38 74 59 109 146 103 259 -3 70 -6 77 -36 104 -26 24 -41 29 -82 29 -41 0
-55 -5 -83 -30 -19 -16 -37 -30 -39 -30 -3 0 -3 14 0 30 4 30 4 30 -47 30 -45
0 -51 -3 -55 -22z m208 -84 c10 -9 16 -33 16 -58 0 -114 -77 -210 -141 -175
-18 9 -20 17 -14 47 21 117 29 138 60 169 37 37 56 41 79 17z"/>
<path d="M1686 583 c-3 -16 -19 -102 -36 -193 -17 -91 -33 -173 -36 -182 -5
-16 2 -18 55 -18 l60 0 10 53 c5 28 22 113 36 187 14 74 28 145 31 158 4 21 1
22 -55 22 -57 0 -60 -1 -65 -27z"/>
<path d="M2142 598 c3 -7 20 -95 38 -195 27 -147 31 -187 22 -207 -10 -22 -52
-58 -106 -91 -15 -9 -16 -14 -1 -57 16 -45 17 -46 46 -36 42 14 121 89 165
155 34 52 214 417 214 436 0 4 -26 7 -59 7 l-58 0 -53 -140 c-29 -77 -54 -139
-55 -138 -2 2 -9 65 -16 141 l-13 137 -64 0 c-47 0 -63 -3 -60 -12z"/>
</g>
</svg>
